<?xml version="1.0" encoding="utf-8"?>
<!-- Generator: Adobe Illustrator 23.0.1, SVG Export Plug-In . SVG Version: 6.00 Build 0)  -->
<svg version="1.1" id="Layer_1" xmlns="http://www.w3.org/2000/svg" xmlns:xlink="http://www.w3.org/1999/xlink" x="0px" y="0px"
	 viewBox="0 0 215.3 209.6" style="enable-background:new 0 0 215.3 209.6;" xml:space="preserve">
<style type="text/css">
	.st0{clip-path:url(#SVGID_2_);}
	.st1{fill:none;stroke:#FFD700;stroke-width:4;}
</style>
<image style="display:none;overflow:visible;" width="204" height="203" xlink:href="3356CAE0.jpg"  transform="matrix(0.9999 0 0 0.9999 227 -288.4383)">
</image>
<g>
	<defs>
		<circle id="SVGID_1_" cx="107.3" cy="104.8" r="101.9"/>
	</defs>
	<clipPath id="SVGID_2_">
		<use xlink:href="#SVGID_1_"  style="overflow:visible;"/>
	</clipPath>
	<g class="st0">
		<line class="st1" x1="35.5" y1="33" x2="178.5" y2="176"/>
		<line class="st1" x1="47.7" y1="21.9" x2="190.7" y2="164.9"/>
		<line class="st1" x1="58.8" y1="9.7" x2="201.8" y2="152.7"/>
		<line class="st1" x1="71.9" y1="-0.6" x2="214.9" y2="142.4"/>
		<line class="st1" x1="86.1" y1="-10.1" x2="229.1" y2="132.9"/>
		<line class="st1" x1="98.4" y1="-20.4" x2="241.4" y2="122.6"/>
		<line class="st1" x1="114.2" y1="-28.3" x2="257.2" y2="114.7"/>
		<line class="st1" x1="-31" y1="83.2" x2="112" y2="226.3"/>
		<line class="st1" x1="-46" y1="92.7" x2="97" y2="235.7"/>
		<line class="st1" x1="-19.9" y1="71" x2="123.1" y2="214"/>
		<line class="st1" x1="-6.9" y1="60.7" x2="136.1" y2="203.7"/>
		<line class="st1" x1="7.4" y1="51.2" x2="150.4" y2="194.2"/>
		<line class="st1" x1="19.6" y1="40.9" x2="162.6" y2="183.9"/>
		<g>
			<line class="st1" x1="35.5" y1="33" x2="178.5" y2="176"/>
		</g>
	</g>
</g>
</svg>
