<?xml version="1.0" encoding="utf-8"?>
<!-- Generator: Adobe Illustrator 23.0.1, SVG Export Plug-In . SVG Version: 6.00 Build 0)  -->
<svg version="1.1" id="Layer_1" xmlns="http://www.w3.org/2000/svg" xmlns:xlink="http://www.w3.org/1999/xlink" x="0px" y="0px"
	 viewBox="0 0 234.2 168.7" style="enable-background:new 0 0 234.2 168.7;" xml:space="preserve">
<style type="text/css">
	.st0{fill:#090057;}
	.st1{fill:#C400C6;}
	.st2{fill:#FFFFFF;}
</style>
<polygon class="st0" points="26.5,15.4 181.1,54 151.1,167.2 1.1,130 "/>
<g>
	<g>
		<path class="st1" d="M59.8,9.6c2.8,0,5.8,0,8.6,0c-1.2-2.2-2.5-4.3-3.7-6.5c-3.7,6-7.4,12.2-11.1,18.2c-2.4,4,2.2,7.6,5.9,5.9
			c11-5.2,22.2-10.3,33.2-15.4c-1.7-2.2-3.4-4.5-5.3-6.8C74.5,18.8,61.5,32.7,48.5,46.6c-3.4,3.7,0.9,8.9,5.3,6.8
			c20.4-10.1,40.9-20.1,61.3-30.1c2.9-1.5,5.8-2.8,8.7-4.3c-1.7-2.2-3.4-4.5-5.3-6.8C95.9,32.7,73.1,53.1,50.3,73.5
			c-3.3,2.9-6.6,5.9-9.7,8.8c-3.6,3.3,1,9.3,5.3,6.8c30.6-18.7,61.2-37.5,91.9-56.2c4.3-2.7,8.6-5.3,12.9-7.9
			c-1.7-2.2-3.4-4.5-5.3-6.8c-32.2,26.1-64.5,52.2-96.8,78.3c-4.5,3.6-9,7.2-13.5,10.9c-3.9,3.1,1.1,9.1,5.3,6.8
			c15.8-9.2,31.6-18.4,47.3-27.5c25.2-14.6,50.3-29.1,75.4-43.7c5.8-3.4,11.6-6.7,17.3-10.1c-1.7-2.2-3.4-4.5-5.3-6.8
			c-13.2,11.1-26.4,22.2-39.6,33.4c-20.9,17.8-42,35.5-63.1,53.3c-4.9,4.1-9.7,8.3-14.7,12.3c-3.7,3.2,1.1,9.4,5.3,6.8
			c16.5-10.4,33-20.9,49.5-31.4c26.5-16.8,52.8-33.5,79.3-50.3c6-3.8,12.1-7.7,18.1-11.5c-1.7-2.2-3.4-4.5-5.3-6.8
			c-12.3,11.4-24.7,22.8-36.9,34.1c-19.7,18.1-39.2,36.2-58.9,54.3c-4.5,4.1-9.1,8.4-13.5,12.5c-3.5,3.3,1.3,9.7,5.3,6.8
			c14.5-10.9,29.1-21.7,43.5-32.6c23.2-17.3,46.4-34.7,69.5-52c5.3-4.1,10.7-8,16.1-12.1c-1.7-2.2-3.4-4.5-5.3-6.8
			c-27.8,30.2-55.6,60.3-83.4,90.4c-4,4.3-7.9,8.5-11.8,12.8c-3.2,3.4,0.9,9.6,5.3,6.8c24.1-15.9,48-31.7,72.1-47.6
			c3.4-2.2,6.8-4.5,10.3-6.8c-2-2-4-4-5.9-5.9c-13.7,18.1-27.3,36.2-41,54.3c-2,2.6-3.9,5.2-5.9,7.8c-2.8,3.8,2.5,7.5,5.9,5.9
			c11.8-5.4,23.6-10.9,35.4-16.4c5-2.3,0.7-9.7-4.3-7.4c-11.8,5.4-23.6,10.9-35.4,16.4c2,2,4,4,5.9,5.9c13.7-18.1,27.3-36.2,41-54.3
			c2-2.6,3.9-5.2,5.9-7.8c2.6-3.4-2.4-8.2-5.9-5.9c-24.1,15.9-48,31.7-72.1,47.6c-3.4,2.2-6.8,4.5-10.3,6.8c1.7,2.2,3.4,4.5,5.3,6.8
			c27.8-30.2,55.6-60.3,83.4-90.4c4-4.3,7.9-8.5,11.8-12.8c3.1-3.4-1.1-9.8-5.3-6.8C211,46.3,196.5,57.2,182,68.1
			c-23.3,17.3-46.5,34.7-69.7,52c-5.3,4.1-10.7,8-16.1,12.1c1.7,2.2,3.4,4.5,5.3,6.8c12.3-11.4,24.7-22.8,36.9-34.1
			c19.7-18.1,39.2-36.2,58.9-54.3c4.5-4.1,9.1-8.4,13.5-12.5c3.5-3.3-1-9.4-5.3-6.8c-16.5,10.4-33,20.9-49.5,31.4
			c-26.5,16.8-52.8,33.5-79.3,50.3c-6,3.8-12.1,7.7-18.1,11.5c1.7,2.2,3.4,4.5,5.3,6.8c13.2-11.1,26.4-22.2,39.6-33.4
			c21-17.8,42.1-35.5,63.1-53.2c4.9-4.1,9.7-8.3,14.7-12.3c3.8-3.2-1.1-9.1-5.3-6.8c-15.8,9.1-31.6,18.3-47.3,27.4
			c-25,14.5-50.1,29.1-75.3,43.6c-5.8,3.4-11.6,6.7-17.3,10.1c1.7,2.2,3.4,4.5,5.3,6.8c32.2-26.1,64.5-52.2,96.7-78.3
			c4.5-3.6,9-7.2,13.5-10.9c3.9-3.1-1.1-9.3-5.3-6.8C115.7,36.3,85.1,55,54.4,73.7c-4.3,2.7-8.6,5.3-12.9,7.9
			c1.7,2.2,3.4,4.5,5.3,6.8C69.5,68,92.2,47.6,114.9,27.1c3.3-2.9,6.6-5.9,9.7-8.8c3.8-3.4-1-8.8-5.3-6.8
			C99,21.6,78.6,31.6,58.2,41.7c-2.9,1.5-5.8,2.8-8.7,4.3c1.7,2.2,3.4,4.5,5.3,6.8c12.9-13.9,25.9-27.8,38.9-41.6
			c3.4-3.7-0.9-8.8-5.3-6.8c-11,5.2-22.2,10.3-33.2,15.4c2,2,4,4,5.9,5.9c3.7-6,7.4-12.2,11.1-18.2C73.9,4.7,71.6,1,68.4,1
			c-2.8,0-5.8,0-8.6,0C54.2,1,54.2,9.6,59.8,9.6L59.8,9.6z"/>
	</g>
</g>
<polyline class="st2" points="-309.4,-272.5 -299.4,-272.5 -312.3,-251.4 -273.8,-269.3 -318.9,-221 -237.7,-260.9 -328.2,-179.6 
	-206.6,-254 -334.5,-150.6 -172,-244.8 -308.1,-130.1 -137.7,-238.2 -264.6,-121.1 -114.8,-233.2 -225.3,-113.4 -129.8,-176.5 
	-184.2,-104.5 -143,-123.5 "/>
</svg>
